<svg width="1200" height="800" xmlns="http://www.w3.org/2000/svg">
    <g fill="none" fill-rule="evenodd">
        <path fill="#181819" d="M0 1h1200v799H0z"/>
        <path d="M1200 0v202.519c-5.8.774-10.666.587-16.982-1.093 0 0-.5-8.634-1.993-8.634-.158 0-.295.07-.425.194h.006l.063-.004c1.494 0 1.997 8.619 1.997 8.619 6.443 1.708 11.38 1.87 17.334 1.046v510.294c-2.252-3.757-4.446-7.652-6.354-11.683l-.552-1.19.214.482c1.965 4.362 4.29 8.565 6.693 12.611v51.612c-1.18-.602-2.68-1.016-4.358-1.42-3.174-.763-8.361-3.598-13.298-3.598-4.936 0-3.707-6.337-8.643-6.475-4.936-.127-6.521-4.95-6.65-6.476-.116-1.526-6.178-3.127-6.648-5.036-.47-1.918-3.247.47-2.66-1.44.588-1.907-3.437-6.559-5.318-7.194-1.881-.636-9.342-8.5-12.633-12.951-3.291-4.452-6.334-6.855-7.979-8.635-1.645-1.78-6.02-4.738-7.314-5.756-1.293-1.017-4.184-4.742-4.654-3.597-.47 1.146-16.608-.138-24.6 0-7.993.127-9.15-4.44-9.974-6.476-.823-2.035-3.438-2.839-5.319-1.439-1.88 1.389-5.786 1.653-7.314 0l-.096-.096c-1.846-1.707-12.544-5.573-15.196-7.818-2.703-2.29-6.528-6.732-8.644-6.476-2.115.253-7.075.421-9.308 1.439-2.233 1.006-4.573.635-5.984 0-.351-.161-.557.161-.664 0-.705 1.273-2.612.138-7.314 0-4.535-.123-2.794-1.15-.87-2.709l.206-.169c1.998-1.653 2.851 1.27 5.32 0 2.457-1.273-1.294-2.707 0-3.598 1.292-.89 4.647-1.607 8.643-2.878-.351-.041-.451-.488-.664-.718-1.058-1.13-5.195-.21-9.309-.718-4.113-.511-8.871-.719-12.632-.719-3.762 0-5.746 1.945-7.979 3.598-2.234 1.653-2.108 4.317-3.99 4.317-1.88 0-4.342 1.395-3.989 2.157.353.774 1.951.138 4.655 0 2.703-.127 4.606 1.69 9.308 3.598 4.701 1.909 7.035 1.183 9.973 1.439 2.939.255.83 2.242-3.989 2.878-4.819.626-4.012.58-13.298.718-4.062.046-4.441.161-4.654 0 .17-.129.353-.58 0-.718-1.41-.511-.349-1.19-1.994.718s-3.593 2.454-6.649 3.598c-3.053 1.145-1.958-.548-.664-1.44 1.294-.879 1.528-1.438 0-1.438s-2.85.426-5.319-.719c-2.468-1.144 1.015-2.242 2.66-2.878 1.645-.637 3.475.58 6.648.719 3.17.127.899-1.86.664-2.878s-1.756.34-3.989-1.44c-2.233-1.784-3.593.887-6.649 2.158s-7.108-1.057-12.633-1.439c-5.52-.386-3.404 1.522-1.994 2.157 1.411.636 7.31.631 9.309 2.158 1.998 1.526 1.612 3.046-3.324 4.317-4.937 1.278-7.516.295-3.99 1.439 3.526 1.146.088 1.266-5.319 2.157-5.404.89-3.204.088-5.319-1.439-2.116-1.525-1.091-.85-3.324 1.44-2.234 2.289-2.89-1.479-4.655-2.879-1.762-1.4-2.812-.681-3.989.719-1.175 1.4-4.117.34-3.99-1.44.118-1.78 1.57-1.577-.663-1.438-2.233.115-3.24.138-6.649 0-3.411-.128-.71-2.74 1.994-2.879 2.703-.124 1.68-.63 3.325-2.157 1.648-1.525-1.018-1.818-.664-3.597.353-1.783.434-1.948-1.33-1.44-1.762.51-.82 1.901-1.994 4.318-1.16 2.416-2.035-1.31-1.33-3.598.705-2.29-2.34-2.453-5.984-3.597-3.643-1.147-.315-1.225 1.33-2.879 1.648-1.646.71-.676-1.994-1.439-2.703-.763-1.294-2.408 0-4.317 1.292-1.906.668-1.266-1.33-2.157-1.998-.89-.588-1.436 0-3.598.59-2.162-.35-4.989-1.994-7.914-1.646-2.927-.632-2.075 2.66-1.44 3.289.636 2.531-.547 2.659-1.438.117-.884-3.402-1.14-3.99-2.158-.587-1.015.074-2.627 2.66-.718 2.588 1.912 1.566.682 1.33-.718-.235-1.4-2.108-3.257-3.989-5.037-1.88-1.78-3.013-.548-2.66-1.439.353-.89-.973-2.874-3.324-5.036-2.35-2.162-.895-.139-2.66 0-1.763.127-5.28-3.51-5.983-5.037-.707-1.527-.037-2.157-1.33-2.157-1.293 0-5.507-3.085-9.974-5.756-4.466-2.669-3.868-1.863-5.984-.719-.714.39-1.682-.405-2.66-.718-1.914-.615-4.158-1.347-6.648-1.44-1.467-.048-2.568-.982-3.99-2.157-.374-.25-.985-.38-1.33-.718-1.316-1.231-2.773-2.5-3.989-3.597-.489-.297-.787-1.172-1.33-1.44-1.012-.5-2.192-.904-3.324-1.439-.168-.069-.494.093-.664 0-2.024-.521-3.405-2.133-4.654-3.597-.717-.603-1.107-.4-1.33-.718-.106-.136.064-.627 0-.719-.043-.092-.674.07-.664 0-.043-.055 0-.718 0-.718s.515.069.664 0c1.45.196 3.003 1 4.654 1.439.62.184 1.528-.092 1.994 0 .673.2 1.415.534 1.994.718.198.016.451-.046.664 0 .287.14.451.557.664.719.409.181 1.398.237 1.994.718-.328-.352-.377-1.006-.664-1.44-.106-.278.228-.36 0-.717-.223-.35-.443-.512-.664-.719-2.901-3.789-7.21-6.91-10.638-7.195-1.874-.156-2.83-.92-3.99-1.439-.19-.115-.472.115-.663 0-1.267-.651-2.078-1.167-3.325-2.157-2.137-1.204-4.652-2.836-5.984-3.598-3.995-2.29-3.438-4.906-5.319-7.195-1.88-2.289-8.636-2.493-12.633-5.036-3.996-2.544-2.344-6.09-3.989-8.634-1.645-2.544-11.336-6.592-14.627-12.952-3.291-6.36-9.383-9.098-11.968-9.353-2.586-.255.357-5.037-1.994-5.037-2.352 0-3.95-.29-4.655-3.597-.705-3.307-1.128-6.687-4.654-7.195-3.526-.51-6.649-5.205-6.649-6.476 0-1.272-4.225-.203-3.989-5.037.235-4.833-6.722-8.713-9.308-11.512-2.586-2.798-2.975-3.088-1.33-3.597 1.643-.509.664-1.984.664-5.037 0-3.052 1.02-3.212-1.33-5.756-2.351-2.544-3.714-2.282-4.655-4.317-.94-2.042-3.324-2.157-3.324-2.157s2.15-3.764 3.324-5.037c1.13-1.222 1.93-.758 1.99-.72l.004.002 8.644 10.073-.664-2.878.012-.008c.105-.062.9-.454 2.647.726 1.888 1.272 2.23-2.282 1.994-4.317-.22-1.912-3.547-4.041-3.949-4.292l-.04-.025.664-3.597 3.325 2.878-.664-3.598c.116.007 1.521.179 4.641 4.315 3.291 4.324 11.653 7.957 13.298 7.195 1.645-.763-3.05-6.599-3.99-8.634-.94-2.042 4.418-.378 4.655-2.158.235-1.78-4.258-3.467-7.314-5.756-2.037-1.526-2.08-3.627-1.994-5.036-3.798-1.343-8.468-3.03-5.32.718 6.65 7.912-6.648 3.596-13.962 2.157-7.313-1.439 3.99 7.196-5.319 4.318-9.308-2.879-9.308-12.232-7.978-19.427s-7.979-2.878-23.271-20.147c-13.963-12.23-20.612-16.548-39.229-46.048-18.616-29.5-7.313-15.11 8.644 1.44 15.957 16.548 8.644 0 14.627 0 5.985 0 18.617 17.267 31.915 31.658 13.298 14.39-13.298-3.598-21.941-6.476-8.644-2.878 3.99 6.476 12.633 13.67 8.643 7.196 3.989-3.597 12.633 0 8.643 3.598 18.616 18.708 35.238 33.098 4.155 3.599 5.426 5.16 5.32 5.756 1.018.414.697-.44 2.659.718 5.171 3.053 5.669 3.888 7.314 7.195 1.645 3.307 14.936 8.722 17.287 7.195 2.35-1.528 5.077-.808 9.308.719 4.231 1.526 13.298.718 13.298.718s-4.768-6.518-6.65-5.756c-1.88.762-5.043 1.317-5.983-.718-.94-2.035-4.258-.712-7.314-5.037-3.056-4.324-7.42-6.261-13.297-7.914-5.877-1.654-16.065-8.158-21.942-14.39-5.876-6.233-17.317-17.305-22.606-20.866-5.289-3.562-13.522-14.804-19.281-20.146-5.76-5.343-11.848-8.67-13.963-12.232-2.116-3.561-4.923-11.338-7.979-14.39-3.056-3.053-6.094-9.514-9.973-15.11-3.879-5.597-.234-6.428 0-9.354.235-2.925-1.796-7.056-3.324-13.67-1.518-6.614-2.23-17.686-1.994-20.866.234-3.18 1.866-5.283 1.994-9.354.117-4.07 2.97-14.208 3.324-21.585.353-7.377-5.319-8.038-5.319-10.073s-1.131-3.634-2.66-7.195c-1.528-3.562-3.75-8.285-5.983-14.39-2.233-6.105-2.62-4.862-3.325-7.915-.702-3.062.357-4.022-1.994-2.878-2.35 1.145-3.005-1.607-6.649-2.878-3.643-1.272-7.112-1.944-10.638-3.597-3.525-1.654-3.555-3.34-5.319-5.757-1.763-2.416-7.031-5.577-11.968-10.792s-7.391-4.524-7.979-7.195c-.587-2.671-6.762-6.472-8.643-8.634-1.881-2.163-1.917-4.612-1.33-5.756.587-1.156.309 0 2.66 0 2.35 0-.07-1.984-4.655-5.037-4.58-3.051-3.287-1.4-1.994 0 1.244 1.348 2.559 2.769 2.654 2.872l.006.006v2.878s-5.393-.249-7.979-2.157c-2.585-1.908-6.41-3.805-8.643-6.476-2.234-2.67-6.723-2.833-9.309-3.597-2.585-.765-6.994-2.623-10.638-2.878-3.643-.255-6.649-2.879-6.649-2.879l-.067.067c-.327.336-1.806 1.94-3.257 4.97-1.646 3.434-4.025 9.219-5.32 13.67-1.293 4.452-1.247 11.693-3.324 18.708-2.079 7.015-1.08 8.364-1.33 10.793-.249 2.428-1.578 5.936-2.66 9.353-1.08 3.418-.748 5.847-1.33 7.915-.582 2.067-2.327 3.237-2.659 2.878-.332-.36-4.654-3.598-4.654-3.598l.005.004c.207.175 3.45 2.913 3.945 4.194l.04.12c.332 1.259-2.743 7.554-3.99 10.072-1.247 2.52-1.994 2.878-3.324 1.44-1.328-1.44-1.247.72-.664 2.877.58 2.158 2.079 1.08 1.33 2.878-.35.84-.236 2.072-.043 2.743l.043.135-2.66-2.157.028.063c.267.606 2.406 5.456 3.962 8.571 1.662 3.328 1.662 8.185 1.994 10.793.332 2.608-2.825 6.206-3.99 7.914-1.16 1.714-.666-.449-1.33-2.157-.663-1.708-1.495-.27-2.66 1.44-.286.427-.448.02-.663 0-.343-.572-.956-1.617-1.33-2.158-.749-1.08-1.33-.182-2.66.718-1.33.9-3.074 2.247-3.989 4.317-.915 2.069-1.33 3.598-1.33 3.598s-.664-.54-.664-2.158c0-1.619.166-3.958 1.33-5.756 1.083-1.674 3.031-2.1 3.295-2.152l.016-.003h-.022c-.086-.006-.36-.084-1.142-.616l-.153-.105c-1.16-.81-1.33-2.608-1.994-4.317-.666-1.708 0-2.878 0-2.878s-1.828.627-3.324.719c-1.492.09-1.579-.808-.664-2.158.917-1.348-.996-2.428-1.994-3.597-.996-1.17 0-2.249 0-5.037 0-.416-.579-.357-.664-.718.083 1.889-1.33 2.698-1.33 4.317 0 1.62 1.994 1.979 1.994 3.597 0 1.62-1.828 3.6-.664 4.318 1.164.718 3.74.898 5.32 2.157 1.576 1.26.58 3.508 0 5.036-.582 1.53-1.995 3.148-1.995 5.757 0 1.221-.434 1.866-.628 2.113l-.036.044-3.989-1.44 3.325 3.598c.912.99-.415 3.06-.664 5.037-.243 1.91-1.257 1.473-1.327 1.44h-.003l-1.994-2.158s.832 4.677 0 6.475c-.776 1.68-3 3.358-3.293 3.574l-.032.024-2.66-.719v.719l1.995.718s.249 1.35-1.33 2.878c-1.583 1.529 1.079 4.317.664 5.756-.417 1.44-2.909 3.06-2.66 5.037.24 1.904 1.862 2.807 1.986 2.874l.008.004-2.66 2.878.665.718 1.993-.718 3.325 4.317s-4.322 1.347-8.644 1.439c-4.32.09-2.742-1.62-3.989-3.598-1.246-1.977-4.57-3.506-5.319-2.878-.75.63-.332 1.89 1.33 3.598 1.664 1.709 1.33 2.25 1.33 4.317 0 2.065-1.16 1.167-1.33 2.157-.166.99.664 2.07.664 2.878 0 .76-.584.727-.657.72l-.007-.001 1.994 2.157c.048.06.29.417-1.33 0-1.745-.45-2.328-.72-2.66-2.878-.334-2.158-.832-4.586 0-5.756.834-1.167-.58-1.798-1.994-2.157-1.412-.362-1.578-.09-2.66.718-1.08.81-1.412 1.257-2.659.718-1.199-.515-.706-2.034-.666-2.15l.002-.007v-.718s-1.744-.54-2.659-1.44c-.87-.856-.683-2.048-.665-2.15l.001-.007h1.994l-2.66-.718v-3.598c-.065.663-.472 2.006-.663 2.878-.25 1.08-1.29 1.527-1.994 0-.707-1.526.51-4.738-.664-5.756-1.176-1.015-5.004-.884-6.65-2.157-1.596-1.237-.715-4.83-.665-5.028l.002-.009 3.333 2.877c3.291 3.31 5.238 1.825 6.65-.719 1.413-2.542-.114-3.684-1.995-2.157-1.88 1.526-3.01 2.245-4.654.718-1.647-1.526-1.881-3.467 0-5.756 1.88-2.29-1.68-6.679-3.325-11.512-1.645-4.833-8.287-11.976-10.638-12.232-2.35-.254-4.533-4.485-6.648-5.756-2.116-1.272.785-4.572-1.33-4.317-2.116.254-2.855-.712-3.325-5.036-.47-4.327-4.647-5.5-8.643-5.756-3.994-.255-.9-1.643-.664-6.476.235-4.834-4.145-5.205-5.32-6.476-1.178-1.27-.591-1.904 1.995-2.157 2.585-.254.193-2.326.664-3.597.47-1.271 2.303-.719 4.654-.719.886 0 1.88-.414 2.96-.648l.364-.07-.324.057c-2.297.314-5.146-1.118-8.32-.775-3.323.36-3.323 1.798-4.653-2.878-1.33-4.677 1.33-3.6 0-5.757-1.33-2.158-1.995-3.957-3.325-6.475s2.328-13.67 1.33-17.268c-.997-3.598-3.656.72-3.324-3.598.326-4.234 3.85-2.931 3.985-2.88l.004.002-5.984-5.756 7.979-5.037s-3.325-.359-7.314 0c-3.99.36-6.649-1.079-6.649-5.036s1.33-13.67-3.324-20.146c-4.654-6.476-.666-11.872-2.66-14.39-1.953-2.466-4.543-8.381-4.65-8.627l-.004-.008 1.33-5.756c3.579-3.617 4.097 1.22 9.973 5.037 8.97 3.476 19.81 11.253 26.596 7.913 9.173-3.385 13.496-7.36 20.611.719.94 3.561 6.602 4.738 11.303 5.756 11.713-16.43 18.36-6.843 21.216-10.98-3.008 3.067-9.582-5.19-20.862 10.451-4.692-1.004-10.343-2.165-11.281-5.68-7.102-7.97-11.418-4.048-20.573-.708-3.387 1.648-7.939.516-12.61-1.42-2.47-1.023-4.787-2.336-7.3-3.55l.004-.01c.101-.307 2.134-6.837-5.313-14.187 7.418 1.101 5.951-5.2 9.955-4.26 4.96 1.166 9.471-2.015 14.6-3.549 15.925-4.764.663-10.648.663-10.648s3.225-10.569 12.609-4.26c2.366.155 4.512.213 6.45.18-2.31-8.62-1.728-15.25-8.638-24.601-37.913-38.882-49.037-11.88-33.26-5.027-4.154 3.957-18.369 14.964-25.257 15.8-11.366 1.378-24.298-16.187-43.919-5.027-9.977 6.48-7.943 8.64-15.925 17.281-7.982 8.642-17.97 3.58-29.943 7.9-27.936 12.96-53.837 47.518-85.764 53.999-4.315.944-8.497-.686-12.649-2.153 2.248-.38 3.085-.067 6.014-.717 12.45-12.935 15.466-17.103 19.947-14.409 4.483 2.696 7.63-5.382 10.617-10.772 2.99-5.391-9.99-13.695-15.966-7.227-5.975 6.468-6.139 7.045-4.645 10.818 1.494 3.763-4.975 3.95-7.963.716-2.988-3.234-2.025 3.048-11.985 10.054-5.478 3.854-12.008 8.93-11.28 11.536-7.982 2.16-.032 15.105-4.023 23.746-1.53 4.97-5.155 11.03-8.626 16.563-5.737-2.32 6.042-10.405 1.989-20.154-4.482-10.78-16.134 6.314-14.64 27.335 1.494 21.021 9.326-1.437 17.294-1.437.375 0 .362.023.662 0 1.747 7.397-.378 20.667 5.308 23.746 3.991 2.16 6.004-12.94 9.995-8.619 3.99 8.64 11.963 25.883 3.981 32.364-3.991 2.167-5.977 6.497-3.981 10.817 1.866 2.024 5.483-1.514 9.207-1.992l.248-.027-.744 2.334c4.092-.508 7.5 4.578 12.607 11.85 6.304 8.976 11.944 6.105 19.243 10.413 7.295 4.31 7.962 15.442 1.658 19.391-6.304 3.95-5.309 16.16-10.949 27.65-5.64 11.496-14.266 12.926-20.57 12.21-6.304-.72-11.944-5.027-4.977-7.541 6.972-2.514 1.992-11.85-1.989-11.85-2.594.001-4.608 3.62-6.349 7.955l-.12.304.58 1.393c-2.1 3.941-2.488 13.045-2.488 24.329.391.847.891 1.423 1.328 2.155-.835 1.525-1.972 3.231-2.655 5.027-3.99 10.801 21.925 127.4 27.911 140.361 45.003 61.689 61.991 69.338 80.456 70.517 16.128 1.031 88.77 77.27 116.37 93.544 28.256 16.66 9.27-18.016 35.21 5.746 12.145 11.27 26.301 50.964 40.227 95.789L0 799V0h842.565a65.67 65.67 0 0 1-.42 3.956c.198-1.323.375-2.637.512-3.956H1200Zm-44.245 798.625c.351 0 .854.14 1.526.375h-2.034c.137-.24.304-.375.508-.375Zm-91.09-39.578c3.325.719 5.985-.359 9.31 0 3.324.36 7.645-2.518 8.643 0 .998 2.519-.998 5.037 4.654 6.476 5.651 1.439-3.657 2.16 1.33 4.317 4.986 2.159 2.66 3.238 9.308 3.598 27.593-1.8 30.253-5.037 47.207-3.598 16.955 1.437 25.93.718 33.244.718h.22c7.205.03 12.636 1.475 1.774 5.037-10.97 3.599-43.882 7.554-59.84 5.756-15.956-1.798-18.284 1.078-27.26 2.878-8.976 1.8-4.654.36-21.276-2.157-16.622-2.519-20.944-4.678-23.27-5.037-2.328-.36-3.658 1.798-8.644-1.439-4.987-3.238-8.311-3.238-11.303-5.036-2.992-1.799.332-3.958 3.324-2.879 2.992 1.08 7.314-2.158 10.638-3.597 3.325-1.437 8.644-3.598 12.633-.718 3.99 2.878 4.654 8.273 9.308 6.475 4.655-1.798 3.656-.719 0-5.036-3.657-4.319-8.644-3.239-9.308-5.037-.664-1.798 1.661-4.318 5.32-5.038 3.657-.718.663 3.599 3.989 4.317Zm-27.924-47.487c2.867 0 7.979 1.077 15.292.718 14.628-.72 40.89 0 56.516 5.037 15.624 5.036 17.952 3.957 15.292 12.232-2.66 8.274-7.314 10.792-45.212 15.829-18.95 1.798-29.588-2.518-35.24-7.915-5.65-5.394-2.326 1.44-8.643-2.157-6.316-3.599-3.657-5.756-2.66-4.317.998 1.439 4.654.72 3.99-.719-.666-1.439-2.327-3.598 0-5.756 2.328-2.158.997-3.597-1.33-9.353-1.164-2.88-.873-3.598 1.995-3.6Zm-27.926.72c7.314 2.16 6.981 2.519 11.968 8.635 4.986 6.116 8.311 8.635 5.984 10.792-2.327 2.159-10.306-3.957-15.957-6.475-5.652-2.519-4.654-1.8-11.303-5.756-3.99.72-6.317.72-8.644-3.598-2.327-4.317-.665-5.756 3.325-5.755h.54c3.76.005 7.106.098 14.087 2.158Zm92.826-104.652.09.121c.44.572 1.096 1.117 2.154 1.626 7.69 5.65 13.755 14.645 19.282 21.585 2.82 3.816 13.17 15.058 19.282 20.146 9.64 3.996 19.155 10.78 28.59 17.988 19.443-5.337 16.286 1.734 24.34 9.118l-.008-.08-.05-.362c-8.398-7.455-4.959-14.72-24.64-9.337-9.45-7.195-18.98-13.966-28.637-17.955-6.121-5.079-16.487-16.301-19.313-20.11-5.536-6.927-11.61-15.905-19.313-21.546-.79-.38-1.357-.778-1.777-1.194Zm-357.45-68.749c17.287 12.951 6.981 10.433 15.957 20.866s11.968 10.792 22.606 21.585c10.638 10.792 10.306 7.914 16.622 16.549 6.317 8.634 15.625 11.872 33.245 27.34 17.62 15.47-2.66 1.8-21.277-10.072s-26.927-16.19-44.547-35.975c-1.33-3.598-1.662-.36-7.979-11.513-6.316-11.152-21.608-20.146-37.233-43.89-3.905-5.936-6.027-8.644-5.985-9.353.11-2.125 15.626 14.75 28.59 24.463Zm-457.627 56.45c2.49 6.42 3.044 13.094-9.389 18.671-3.54-1.786-6.33-2.476-8.55-2.684-.533 1.697-.678 3.71-.32 6.236 1.41 9.91 3.372.321 14.64 7.182 12.678-6.86 8.79-15.405 5.972-23.027-1.262-3.42-1.546-5.793-2.353-6.379Zm579.966 7.586c1.055 1.406 2.055 2.575 2.66 3.598.633 1.072.377 2.017 1.995 4.317 3.158 4.498 3.822-.18 5.984 3.597 2.164 3.779 3.655 5.756 1.993 5.756-1.662 0-5.983-.36-8.643-5.036-2.66-4.677-4.155-1.799-9.308-7.915-.668-1.439-.998-1.259 0-5.756.997-4.498 3.158-1.439 5.319 1.44Zm217.206-7.496.077.085c3.848 4.245 9.589 4.517 14.753 6.675.243.188.457.377.645.565a5.98 5.98 0 0 0-1.12-1.104c-4.987-2.077-10.51-2.405-14.355-6.221Zm-314.28-69.491c8.976 7.555 26.596 23.744 35.904 30.939 9.309 7.195 27.926 26.981 33.91 31.658 5.983 4.677-10.971 3.597-25.931-12.232-14.96-15.829-29.92-25.182-40.558-37.414-11.635-12.771-14.918-17.717-13.963-18.707.956-.99 6.15 1.978 10.638 5.756Zm294.854 42.029.347.406c3.796 1.48 6.486 3.081 8.482 4.89-1.964-1.927-4.648-3.62-8.522-5.175l-.307-.121Zm-20.409-17.086.075.07c.35.314.801.603 1.4.873 3.058 1.191 5.792 2.95 8.291 5.005-2.651-2.248-5.565-4.177-8.854-5.453a6.367 6.367 0 0 1-.912-.495Zm-23.728-19.615.624-.015c-.013.273-.022.427-.022.427 3.625-.115 8.839 0 12.633 0l-.226-.001-.356-.41c-3.8 0-9.022-.116-12.653 0Zm-12.738-13.639.122.083c3.418 2.272 8.893 1.552 12.045 2.312l-.032-.089-.062-.158c-2.907-.947-8.432-.136-12.073-2.148Zm-10.297-7.2.143.094c1.754 1.106 4.876 1.519 6.519 2.299-1.209-.968-4.564-1.344-6.662-2.394Zm-271.564-7.515c15.292 11.515-1.33 5.758-13.962-2.157-4.738-5.397-6.262-8.02-5.32-8.635 1.572-1.026 9.725 3.597 19.282 10.792Zm-21.276-53.242c2.66 5.036.665 6.475 2.66 13.67 1.994 7.196-.665 4.318-7.314 2.879-7.314-2.879 1.33-6.476 0-10.074-.998-2.698.665-7.645 2.66-7.914.664-.09 1.33.18 1.994 1.439Zm264.595-8.178-5.769.69c.103.077.208.147.318.207l.166.083 5.73-.687a8.312 8.312 0 0 0-.445-.293Zm-13.39-3.438.127.82c1.251-1.279 2.202-1.72 2.975-1.655l.073.009c-.795-.475-1.782-.391-3.176.826ZM618.527 375.55c6.649 3.597 4.655 4.317 5.319 12.95 3.324 12.232 5.984 22.305 17.287 30.94 11.303 8.633 15.957 13.671 13.297 15.829-2.659 2.157-3.324.718-11.967-7.915-8.644-8.634-9.974-18.707-14.628-13.67-4.598 4.975-5.951.82-5.983-5.523l-.001-.933c-.005-5.741-.15-5.542-3.99-18.008-2.99-9.713-4.716-14.806-2.659-15.11.686-.1 1.663.54 3.325 1.44Zm337.101 49.845v.519c.748-.366 1.371-.469 1.909-.387l-.034-.017c-.522-.26-1.128-.334-1.875-.115ZM608.555 241.722c5.318 6.476-.664 10.793 3.324 26.622 9.308 17.987 11.968 31.658 15.957 28.06 3.99-3.597 4.654-5.756 4.654 10.074 0 15.829-2.66 26.621 5.32 53.243 7.978 26.622 17.951 38.134 12.632 39.573-5.319 1.44-6.649 2.878-16.622-10.073-9.973-12.951-18.617-36.695-23.936-52.524-5.319-15.83-6.649-20.866-5.319-27.341 1.33-6.476 6.649 5.036 12.633 6.475 5.984 1.44 0-14.39-5.319-30.22-5.32-15.828-18.616-17.987-16.622-28.06 1.495-7.555 5.287-16.087 9.308-17.268 1.34-.394 2.66-.18 3.99 1.439ZM941.62 394.658l.25.066c.63.161 1.232.252 1.79.252.142 0 .283.01.425.028a3.523 3.523 0 0 0-1.164-.206c-.412 0-.848-.05-1.301-.14Zm-258.6-65.876c6.65 1.44 5.32 10.793 8.644 14.39 15.292 12.952 22.606 21.586 18.617 24.464-3.99 2.878-1.994-3.598-14.628-9.354-12.632-5.756-13.962-1.439-21.276-9.353-7.314-7.915 1.33-9.354 4.654-6.476 3.325 2.878 7.314.718 3.325-5.037-2.992-4.317-4.718-7.756-2.66-8.634.686-.292 1.663-.359 3.325 0Zm227.667 18.893.394.533c.611-.884 2.153-1.543 3.296-1.608l.043-.002c-.907-.32-2.745.203-3.733 1.077Zm-15.05-5.306-3.114 5.373.304.234.302.232 2.986-5.168c-.154-.2-.313-.424-.478-.671Zm6.66-5.028c-1.503 1.135-2.056 6.644-3.88 7.158 2.286 1.042 2.884-4.658 4.27-6.633l-.39-.525Zm-253.85-118.643c13.298 15.829 13.298 18.707 10.638 21.585-2.66 2.88 3.325 0 7.314 3.597 3.988 3.598-3.324 11.513 1.994 15.83 5.32 4.317 7.979 4.317 13.963 11.512 5.984 7.195 19.946 19.428 17.287 21.585-2.66 2.157-15.957 0-13.963 2.878 1.994 2.878.664 12.232-5.319 6.476-5.984-5.757-19.946-6.476-19.282-14.39.664-7.914 0-10.793-9.308-7.196-9.308 3.598-23.936-2.157-26.595-12.231-2.66-10.073 5.319-3.598 5.319-10.073 0-6.475 4.654-7.914 7.978-5.756 3.325 2.157 2.66-2.158 3.325-9.354.58-6.296-.665-22.437 3.99-24.463.665-.29 1.744-.36 2.66 0Zm-166.215 41.734c1.693-.29 3.699-.276 4.654-.718 1.646-.763 7.979.718 7.979.718s-3.204-1.649-5.32-2.157c-2.115-.512-4.962 1.648-7.313 2.157Zm425.49-58.809c.94-.115 1.993.069 3.231.697 6.482 8.487 1.998 10.396 9.324 12.21 2.118 2.284 8.852 10.178 9.323 12.21.471 2.03-1.297 6.586 1.997 8.618 3.297 2.031 11.16 2.952 13.986 5.745 11.941 13.529 16.823 19.282 34.868 17.361-17.462 1.708-22.362-4.08-34.133-17.462-2.821-2.798-10.672-3.72-13.963-5.756-3.29-2.035-1.523-6.598-1.994-8.634-.47-2.035-7.193-9.943-9.308-12.231-7.312-1.817-2.838-3.73-9.308-12.232-1.598-.814-2.887-.883-4.023-.526Zm-11.265-.716c.577.01 1.001.4 1.177 1.413.553 3.189 1.514 4.55 3.154 3.884-1.156-.037-1.886-1.426-2.341-4.055-.25-1.45-1.005-1.627-1.99-1.242Zm-11.238 3.159c1.233-.175 2.672-.072 4.423.408.206-.02.425-.076.654-.16l.08-.033c-2.114-.57-3.77-.58-5.157-.215Zm218.678-21.346c1.393.012 2.672 5.294 5.512 7.39 3.164 2.335 10.165 4.907 15.317 7.182 2.862 1.264 2.165 3.408 8.658 3.591 3.782.108 7.225-.093 9.573-1.165-2.325.919-5.583 1.09-9.14.99-6.483-.185-5.787-2.332-8.644-3.598-5.144-2.28-12.134-4.857-15.292-7.195-3.158-2.338-4.382-8.634-5.984-7.195Zm45.212 5.036s-.076.13-.203.373c4.272 3.595 7.902 1.974 10.45 9.163.076.136 1.445 2.332 10.656 2.154 2.605-.05 4.47-.56 5.836-1.274-1.328.619-3.087 1.05-5.463 1.095-9.474.187-10.638-2.157-10.638-2.157-2.585-7.318-6.283-5.524-10.638-9.354Zm-102.999 5.164c.669-.172 1.356-.18 2.033.063 3.45 1.241 13.345 6.052 17.061 4.435-4.05 1.01-13.204-3.438-16.492-4.625-.872-.314-1.76-.21-2.602.127Zm-22.914-4.356c.511-.06 1.029.17 1.639.828 2.118 2.284 15.983 7.9 15.983 7.9s.082-.121.233-.323c-2.146-.885-13.693-5.7-15.61-7.774-.849-.918-1.519-1.004-2.245-.63Zm-11.717 2.791c-.209 0-.492.075-.829.21l.097-.012.102-.006c1.469 0 3.334 2.385 6.223 1.285-2.537.576-4.235-1.477-5.593-1.477Zm71.142-21.586-.243.307c2.582.805 5.43 4.235 2.39 9.98-2.589 4.89 12.146 6.12 17.49 3.606-5.684 2.238-19.488.94-16.978-3.82 3.143-5.96-.018-9.431-2.66-10.073Zm-549.563-23.033c3.166-1.317 8.464-.332 11.01 3.61 11.974 4.529 20.079 7.56 32.579 7.196 0 0-.015-.1-.034-.281-12.323.307-20.382-2.672-32.246-7.107-2.628-4.024-8.199-4.925-11.309-3.418Zm194.333-9.004c8.972 4.29 18.738 11.135 24.784 18.369 1.232-.254 9.598-.94 13.962-2.88.454-4.192 6.727-12.097 16.622-5.758 2.702.133 6.763-3.002 9.44-5.98l.216-.244-.223.242c-2.693 2.883-6.847 5.966-9.58 5.833-9.878-6.254-16.139 1.544-16.591 5.68-4.356 1.914-12.707 2.589-13.937 2.839-5.942-7.03-15.487-13.685-24.328-17.928l-.365-.173Zm-112.019 7.477.022-.015c-5.46 3.923-11.273 6.707-17.272 10.639-9.395-2.678-7.66-8.678-16.591-8.519-2.01.038-3.2 1.126-3.892 2.57l-.08.174.092-.164c.724-1.246 1.885-2.149 3.725-2.183 8.948-.163 7.135 5.674 16.547 8.389 5.725-3.796 11.282-6.537 16.523-10.224l.926-.667Zm54.93-9.774.516.251c17.602 8.652 21.807 17.864 28.831 13.938 6.489-2.398 7.088-4.104 6.899-6.987l.008.149c.137 2.704-.604 4.358-6.9 6.658-7.118 3.933-11.135-5.386-29.355-14.009Zm105.089-33.72-.016.094-.063.072c-3.17 16.959 3.686 35.927 18.582 34.785.834-.064 1.076.348.89 1.044.325-.904.133-1.465-.81-1.392-14.775 1.147-21.568-17.34-18.62-34.387l.037-.215Zm-111.483 19.633.005.016c2.016 4.723-2.955 9.17-1.084 10.849l.222.085c-1.59-1.763 3.144-6.27.857-10.95Zm-14.587-23.432.014.18c.202 3.153-2.212 6.915-2.212 9.798 0 .393.065.76.188 1.106a3.258 3.258 0 0 1-.081-.73c0-3.111 2.891-7.15 2.091-10.354Zm118.259-28.285-.051.065-.181.241c2.11 10.809 3.74 9.139 9.955 14.908-.064-16.804 11.07-3.258 16.43 6.795l.07.132c.086-.137.173-.28.26-.43-5.304-10.216-16.892-24.565-16.828-7.361-6.112-5.74-7.602-4.054-9.655-14.35ZM802.5 43.02l-.045.118c-.596 1.744.81 3.697 1.299 4.943 1.2-.512-1.102-2.8-1.254-5.061Zm36.369-23.87-.047.205c-.382 1.75-.376 3.703.865 5.149 1.654 1.93 5.021 3.889 5.994 5.311 2.285-1.277-3.42-4.08-5.744-6.824-.928-1.093-1.166-2.473-1.068-3.84Zm-390.217 4.173c1.278 7.967 13.36.157 21.665-2.078a6.127 6.127 0 0 0-.278-1c-2.265-6.059-13.543.975-21.387 3.078Z" fill="#333336"/>
        <path fill="#333336" d="M246 595h64v45h-64z"/>
    </g>
</svg>